Coordinates
version=1
nRows=24
nColumns=24
inDegrees=yes

Units are S.I. units (second, meters, Newtons, ...)
Angles are in degrees.

endheader
time	pelvis_tilt	pelvis_list	pelvis_rotation	pelvis_tx	pelvis_ty	pelvis_tz	hip_flexion_r	hip_adduction_r	hip_rotation_r	knee_angle_r	ankle_angle_r	subtalar_angle_r	mtp_angle_r	hip_flexion_l	hip_adduction_l	hip_rotation_l	knee_angle_l	ankle_angle_l	subtalar_angle_l	mtp_angle_l	lumbar_extension	lumbar_bending	lumbar_rotation
      4.65000000	    -11.70334786	      7.78868926	      3.67517322	     -1.61795112	     -0.03232449	      2.00952017	     18.52506700	    -13.79716468	    -10.34946154	    -61.66761025	    -20.59291442	    -13.32607647	     20.93023782	     28.33930444	     12.04494861	     -4.71156759	    -22.44811276	     -1.70790169	     -5.88252249	     15.33041571	      9.59050033	     -8.73932739	     -2.98523487
      4.66000000	    -11.56403585	      7.75857437	      3.48752581	     -1.60559614	     -0.03008250	      2.00907739	     20.17611006	    -13.45280052	     -9.43218927	    -62.42522726	    -18.91883258	    -13.37662722	     21.96018960	     26.97600167	     11.95409119	     -4.86003842	    -21.78754426	     -1.18889071	     -5.67117966	     15.83425632	      9.37983501	     -8.62497177	     -3.07049839
      4.67000000	    -11.39793745	      7.62170332	      3.45014272	     -1.59328336	     -0.02778288	      2.00833189	     21.63405968	    -13.06406402	     -8.78766409	    -62.74712491	    -17.42268167	    -13.03352226	     25.00134482	     25.52996509	     11.85918953	     -4.77298516	    -21.04522867	     -0.70183514	     -5.50913678	     16.09630114	      9.12580295	     -8.40900310	     -3.33092543
      4.68000000	    -11.19955289	      7.47488920	      3.29828804	     -1.58114698	     -0.02551669	      2.00774415	     23.06383246	    -12.56801903	     -8.04107993	    -62.83056597	    -15.77001486	    -12.38754341	     26.61463307	     24.02594582	     11.73474448	     -4.63680026	    -20.22073836	     -0.25539874	     -5.52247151	     15.91150225	      8.83343948	     -8.15938899	     -3.48808943
      4.69000000	    -11.06128837	      7.13228727	      3.36172956	     -1.56911790	     -0.02336862	      2.00682779	     24.36906531	    -11.97717669	     -7.68942278	    -62.50810587	    -14.31917946	    -11.81545534	     29.25078028	     22.62021240	     11.50221604	     -4.28347906	    -19.48144994	      0.30476841	     -5.41030172	     15.38887564	      8.57330286	     -7.73716006	     -3.92147924
      4.70000000	    -10.98363364	      6.78019723	      3.39036605	     -1.55720491	     -0.02146659	      2.00600924	     25.71620635	    -11.35454340	     -7.38107166	    -62.01188551	    -12.67273625	    -11.25127684	     29.67357676	     21.29519118	     11.24402355	     -3.92342504	    -18.71873560	      0.72164959	     -5.45280760	     15.31434507	      8.37221611	     -7.30453872	     -4.25886529
      4.71000000	    -10.83978829	      6.37781722	      3.49969244	     -1.54538904	     -0.01961667	      2.00507154	     26.86856738	    -10.75108899	     -7.30601037	    -61.21393465	    -11.15217875	    -10.91712496	     30.05204379	     19.91619774	     10.97045054	     -3.39038316	    -17.97716123	      1.06775470	     -5.62414230	     15.05393541	      8.07514852	     -6.82548988	     -4.67255446
      4.72000000	    -10.67192447	      5.90900434	      3.70522971	     -1.53361389	     -0.01788287	      2.00399606	     27.87852569	    -10.17014679	     -7.48930599	    -60.13744147	     -9.87052670	    -10.88606924	     30.08091617	     18.52674939	     10.66006746	     -2.67941190	    -17.26552279	      1.42587308	     -5.88183242	     14.56748912	      7.74426678	     -6.28265829	     -5.16708431
      4.73000000	    -10.53503955	      5.44975808	      3.87972969	     -1.52189973	     -0.01639706	      2.00306876	     28.89238374	     -9.59701932	     -7.72549614	    -58.91270450	     -8.63538892	    -11.00454143	     28.10677210	     17.21751428	     10.32687885	     -1.98305695	    -16.68048941	      2.21205698	     -5.89296433	     12.19871047	      7.44608809	     -5.75656532	     -5.56895818
      4.74000000	    -10.39572488	      5.00655116	      4.11785952	     -1.51022556	     -0.01512508	      2.00206516	     29.82141715	     -9.11743405	     -8.10185305	    -57.48161461	     -7.64469922	    -11.24048295	     26.16603383	     15.90395758	     10.00715946	     -1.28714854	    -16.03235187	      2.67510906	     -6.10008124	     11.18167400	      7.14035304	     -5.24755207	     -6.00443062
      4.75000000	    -10.21614169	      4.57554647	      4.41790656	     -1.49857827	     -0.01403724	      2.00099617	     30.61127931	     -8.72850038	     -8.59704003	    -55.85059288	     -6.78027862	    -11.35702348	     24.68223999	     14.56377424	      9.68663970	     -0.59496690	    -15.39463541	      3.07014918	     -6.29868576	     10.56952811	      6.78665142	     -4.75378571	     -6.49428704
      4.76000000	    -10.20172925	      4.16507607	      4.65282311	     -1.48697696	     -0.01334677	      2.00018835	     31.56975778	     -8.30905756	     -9.00070257	    -54.10203811	     -6.10106505	    -11.55323582	     22.04467280	     13.44411480	      9.33422263	     -0.07710095	    -14.81669026	      3.61712835	     -6.29871239	      9.57238195	      6.62136642	     -4.29591712	     -6.85638265
      4.77000000	    -10.23961183	      3.76663314	      4.97974195	     -1.47542265	     -0.01295986	      1.99925819	     32.47284174	     -8.01924823	     -9.53587125	    -52.13552036	     -5.64150221	    -11.56674351	     21.67768617	     12.40905632	      8.99526908	      0.41196531	    -14.25530821	      4.03791447	     -6.27726657	      9.47844609	      6.50687373	     -3.86011519	     -7.29824373
      4.78000000	    -10.16962003	      3.41874298	      5.23187482	     -1.46384072	     -0.01265453	      1.99849524	     33.18480203	     -7.74669577	     -9.99941853	    -50.01240790	     -5.10389880	    -11.25378119	     21.16702092	     11.23382704	      8.66030457	      0.79064178	    -13.64215103	      4.46693071	     -6.22766725	      9.28945334	      6.28435508	     -3.45896950	     -7.65538178
      4.79000000	    -10.17994875	      3.13383098	      5.40733793	     -1.45225503	     -0.01268290	      1.99792266	     33.94001285	     -7.51194009	    -10.37091470	    -47.77397995	     -4.54967150	    -10.65451349	     20.87274081	     10.14621088	      8.35826048	      1.02311718	    -13.02345650	      4.91738781	     -6.11489587	      9.11857126	      6.15129979	     -3.12355843	     -7.89705054
      4.80000000	    -10.23141602	      2.88101919	      5.54126910	     -1.44065809	     -0.01295700	      1.99746940	     34.67196373	     -7.30960642	    -10.74151687	    -45.39459352	     -4.04868150	     -9.82726616	     20.88256073	      9.10462828	      8.06843669	      1.15671544	    -12.40404245	      5.37065957	     -5.96270202	      8.99277539	      6.06587045	     -2.82113305	     -8.08004788
      4.81000000	    -10.26548318	      2.64169207	      5.63768895	     -1.42903013	     -0.01337894	      1.99709918	     35.30317326	     -7.12880319	    -11.17373338	    -42.86688901	     -3.62232640	     -8.76011789	     21.21266417	      8.04932509	      7.76969870	      1.20316223	    -11.79745655	      5.85354281	     -5.73394536	      8.87954978	      5.96844343	     -2.52217250	     -8.24825889
      4.82000000	    -10.15272912	      2.32528758	      5.65656511	     -1.41735126	     -0.01370680	      1.99691293	     35.65496109	     -6.80688492	    -11.64951619	    -40.08301718	     -3.54122505	     -7.71011391	     22.68465435	      6.84186743	      7.34411233	      1.19892528	    -11.20182525	      6.42509180	     -5.42993524	      8.53009252	      5.72382379	     -2.12033616	     -8.35134680
      4.83000000	    -10.28519208	      2.12288298	      5.60640899	     -1.40579121	     -0.01454078	      1.99682024	     36.25977381	     -6.62058475	    -12.12092611	    -37.25827062	     -3.61294754	     -6.34112720	     25.84242984	      5.94885883	      7.05807913	      1.01829618	    -10.69229806	      6.98420531	     -5.09803174	      8.05090507	      5.71742893	     -1.84674875	     -8.31778050
      4.84000000	    -10.49783648	      1.83450209	      5.59730980	     -1.39424986	     -0.01555417	      1.99689747	     36.86003682	     -6.32240379	    -12.60759550	    -34.39500608	     -3.36134954	     -4.66480174	     26.30663351	      5.20723313	      6.67152987	      0.80210511	    -10.27534036	      7.53812858	     -4.68707237	      8.11989984	      5.79703664	     -1.51751644	     -8.35709786
      4.85000000	    -10.54163380	      1.44192735	      5.44997359	     -1.38272935	     -0.01637712	      1.99718072	     37.13647096	     -5.78993809	    -13.03144397	    -31.24000014	     -3.62056379	     -3.18216979	     29.37975381	      4.29732868	      6.14263704	      0.46336869	     -9.86876796	      8.16088326	     -4.27448717	      7.83219239	      5.69203077	     -1.03560588	     -8.26736772
      4.86000000	    -10.73246294	      1.09275841	      5.29414160	     -1.37125023	     -0.01749513	      1.99764878	     37.51477665	     -5.24989629	    -13.26484437	    -28.18156022	     -3.33099675	     -1.33727850	     29.46062072	      3.60816152	      5.66566995	     -0.05762135	     -9.56610049	      8.72759552	     -3.77101348	      7.92181989	      5.72641927	     -0.62536469	     -8.16326985
      4.87000000	    -10.86799489	      0.75449350	      5.09230807	     -1.35973027	     -0.01864711	      1.99825422	     37.72330041	     -4.65111320	    -13.34563319	    -25.07063871	     -3.00288018	      0.46019730	     29.18882486	      2.89207809	      5.19214371	     -0.70911100	     -9.33747146	      9.30032905	     -3.21209990	      7.98722024	      5.69642710	     -0.21617879	     -7.99093438
      4.88000000	    -10.89573500	      0.43412202	      4.89750104	     -1.34798990	     -0.01978915	      1.99901168	     37.68436466	     -3.99496371	    -13.14745762	    -21.99786871	     -2.24063666	      2.18781614	     24.89983047	      2.08061174	      4.72470397	     -1.39728435	     -9.19848375	      9.92117501	     -2.59548688	      7.63017597	      5.56935927	      0.17252043	     -7.81465539
